<?xml version="1.0" encoding="UTF-8" ?>
<!DOCTYPE svg PUBLIC "-//W3C//DTD SVG 1.1//EN" "http://www.w3.org/Graphics/SVG/1.1/DTD/svg11.dtd">
<svg width="558pt" height="309pt" viewBox="0 0 558 309" version="1.1" xmlns="http://www.w3.org/2000/svg">
<g id="#000001ff">
<path fill="#000001" opacity="1.00" d=" M 0.00 0.00 L 0.06 0.00 C 0.05 0.03 0.02 0.08 0.00 0.11 L 0.00 0.00 Z" />
<path fill="#000001" opacity="1.00" d=" M 517.03 6.97 C 518.33 6.48 519.73 6.72 521.07 6.89 C 532.00 8.68 542.94 10.44 553.76 12.85 C 553.51 14.67 553.25 16.49 552.99 18.31 C 553.99 18.48 555.00 18.66 556.02 18.84 C 556.32 19.41 556.90 20.53 557.20 21.09 C 554.01 30.00 548.90 38.05 545.48 46.85 C 534.65 69.40 526.42 93.14 519.52 117.16 C 518.76 119.50 516.02 121.19 516.27 123.77 C 517.79 127.18 520.74 130.11 520.69 134.08 C 520.07 142.69 513.66 149.27 507.21 154.32 C 502.27 158.07 496.17 160.13 490.01 160.53 C 485.55 160.35 481.79 157.59 477.81 155.89 C 477.57 154.71 477.34 153.53 477.11 152.35 C 471.69 152.75 466.80 155.27 461.67 156.82 C 456.39 158.44 451.25 160.46 446.02 162.21 C 442.30 161.82 444.39 157.71 444.57 155.40 C 442.75 154.15 440.77 153.17 438.57 152.87 C 438.06 154.63 437.55 156.39 437.06 158.16 C 434.36 159.21 431.64 160.20 428.97 161.31 C 423.65 163.82 417.83 164.91 412.28 166.75 C 409.55 167.48 406.83 168.82 403.94 168.39 C 401.28 166.86 402.78 163.82 402.97 161.47 C 401.95 160.94 400.86 160.55 399.82 160.11 C 399.67 159.68 399.38 158.81 399.23 158.38 C 390.88 167.34 380.15 174.59 367.97 176.92 L 367.21 177.46 C 362.80 177.72 358.30 178.15 353.93 177.25 C 348.00 175.66 343.08 171.27 340.19 165.93 C 337.89 161.85 336.80 157.24 334.83 153.01 C 334.48 152.32 334.12 151.63 333.78 150.93 C 333.40 156.62 334.25 162.55 332.03 167.97 C 326.85 171.18 320.78 172.62 315.25 175.11 C 310.19 176.74 305.42 180.29 299.88 179.51 C 298.50 174.87 296.52 170.43 295.04 165.82 C 294.08 162.40 293.16 158.97 292.09 155.58 C 290.05 163.15 288.82 170.90 287.34 178.59 C 287.04 181.33 284.18 182.35 282.00 183.26 C 273.92 186.50 265.97 190.05 257.89 193.29 C 256.34 194.06 254.81 192.73 253.37 192.32 C 253.47 190.44 253.61 188.57 253.77 186.70 C 253.03 186.40 251.57 185.81 250.84 185.51 C 244.89 187.98 238.93 190.40 233.02 192.94 C 230.19 194.35 226.98 193.31 223.98 193.80 C 203.93 197.47 183.89 201.31 164.10 206.25 C 161.95 206.88 159.70 206.76 157.51 206.48 C 157.32 204.30 157.22 202.12 157.20 199.94 C 156.48 199.53 155.76 199.12 155.05 198.71 C 148.56 201.00 142.18 203.75 135.45 205.25 C 131.03 205.47 127.03 208.84 122.60 207.92 C 122.01 204.40 121.93 199.62 117.94 198.22 C 115.68 198.75 116.04 201.92 115.34 203.71 C 111.73 207.10 106.50 207.03 101.98 208.29 C 95.00 210.11 87.98 211.79 80.99 213.59 C 80.31 213.22 78.94 212.48 78.25 212.11 C 78.43 210.20 78.60 208.30 78.77 206.39 C 76.50 206.20 73.83 205.09 71.90 206.88 C 62.25 214.25 51.89 221.08 40.10 224.46 C 29.58 227.47 18.45 229.36 7.53 227.66 C 7.51 225.70 7.52 223.75 7.54 221.81 C 6.49 221.20 5.45 220.59 4.41 219.98 C 13.43 176.05 22.00 131.99 28.62 87.63 C 35.81 85.37 43.25 83.98 50.37 81.50 C 61.13 78.84 71.74 74.67 82.97 74.74 C 88.44 74.57 94.35 74.84 98.97 78.13 C 103.21 81.00 104.96 86.02 107.50 90.24 C 109.81 94.20 109.21 98.94 109.56 103.32 C 110.94 102.50 112.47 101.57 112.64 99.80 C 114.23 94.08 116.03 88.41 118.01 82.82 C 118.54 80.97 120.16 79.77 121.95 79.28 C 131.69 76.32 141.73 74.26 151.32 70.84 C 157.43 68.31 163.81 65.68 170.48 65.35 C 170.61 67.26 170.67 69.17 170.69 71.08 C 172.08 71.81 173.45 72.59 174.77 73.45 C 173.45 82.42 171.45 91.28 170.24 100.28 C 168.33 111.47 167.39 122.80 165.89 134.04 C 165.65 139.51 165.13 144.95 164.46 150.37 C 166.27 148.83 167.95 147.15 169.42 145.28 C 177.79 134.90 186.81 125.05 195.09 114.61 C 191.74 115.69 188.43 117.01 184.94 117.57 C 183.47 117.67 182.62 116.28 181.51 115.57 C 181.60 113.96 181.68 112.35 181.77 110.74 C 181.13 110.35 179.86 109.59 179.23 109.21 C 179.23 104.12 179.46 99.03 180.00 93.98 C 180.83 87.65 180.28 81.16 181.81 74.93 C 182.55 73.53 184.36 73.49 185.69 73.00 C 205.12 68.82 224.52 64.43 243.84 59.75 C 246.63 58.99 249.53 58.86 252.39 58.46 C 260.98 55.52 269.64 52.80 278.25 49.92 C 280.21 49.35 282.40 48.61 284.38 49.56 C 285.57 49.83 286.73 50.94 288.01 50.29 C 295.66 47.87 303.26 45.25 310.91 42.81 C 312.72 42.17 314.66 42.38 316.54 42.47 C 316.63 44.42 316.64 46.37 316.64 48.32 C 317.34 48.40 318.72 48.54 319.41 48.61 C 321.52 52.12 319.87 56.19 319.71 59.97 C 319.50 65.19 318.36 70.37 318.79 75.62 C 321.81 65.81 322.96 55.46 326.66 45.87 C 336.63 43.20 346.33 39.54 356.40 37.28 C 357.60 39.13 357.78 41.26 357.38 43.38 C 358.90 44.18 361.99 44.52 361.50 46.90 C 360.45 52.65 358.37 58.18 356.81 63.82 C 363.29 55.25 369.92 46.40 379.11 40.53 C 378.87 40.17 378.39 39.44 378.15 39.07 C 378.61 39.45 379.54 40.22 380.01 40.61 C 388.15 35.34 397.90 31.31 407.76 33.04 C 413.74 34.55 419.03 38.66 422.00 44.08 C 424.56 48.93 427.99 53.51 428.66 59.12 C 422.35 65.87 416.23 72.83 410.54 80.12 C 410.47 81.01 410.39 81.90 410.32 82.79 L 410.24 82.63 C 409.05 82.81 407.87 82.96 406.69 83.08 C 404.23 81.82 402.21 78.75 399.08 79.89 C 391.47 81.79 386.05 88.22 382.11 94.64 C 382.55 94.42 383.41 93.99 383.84 93.77 C 392.92 90.58 402.04 87.49 411.11 84.28 L 410.67 83.45 C 411.47 83.71 413.06 84.23 413.86 84.49 C 418.15 82.56 422.77 81.63 427.28 80.40 C 431.79 69.45 435.04 58.02 439.15 46.91 C 441.74 40.38 443.26 33.45 446.23 27.06 C 447.13 25.25 449.25 24.73 451.00 24.11 C 460.89 21.09 470.93 18.59 480.87 15.73 C 486.10 14.51 491.21 12.66 496.58 12.13 C 496.66 14.15 496.71 16.17 496.76 18.20 C 498.01 18.36 499.27 18.53 500.54 18.70 C 500.79 24.94 498.63 30.86 497.58 36.93 C 491.94 64.87 488.28 93.19 486.46 121.62 C 488.40 120.40 490.20 118.97 491.84 117.37 C 490.47 114.90 488.00 112.34 489.27 109.30 C 493.05 96.82 496.11 84.14 499.37 71.51 C 504.77 51.31 510.11 31.09 515.47 10.87 C 515.85 9.53 516.32 8.19 517.03 6.97 M 517.76 9.86 C 516.48 14.89 515.35 19.96 513.73 24.88 C 513.57 26.04 513.43 27.20 513.31 28.36 C 513.15 28.39 512.85 28.47 512.70 28.50 C 509.23 43.48 504.94 58.27 501.13 73.16 C 500.34 76.03 499.66 78.93 498.80 81.79 C 498.68 82.38 498.43 83.57 498.30 84.16 C 497.10 88.41 495.93 92.67 495.01 96.99 C 493.86 100.68 492.84 104.41 491.98 108.17 L 491.91 106.64 C 491.35 108.53 490.97 110.47 490.65 112.43 C 498.19 111.77 505.76 111.63 513.33 111.69 C 515.15 105.12 517.13 98.59 519.20 92.09 C 527.55 65.06 539.72 39.48 551.67 13.93 C 541.75 13.31 532.14 10.32 522.24 9.40 L 522.40 8.79 C 520.96 9.08 518.09 7.63 517.76 9.86 M 487.15 16.12 C 484.72 16.66 482.33 17.35 480.01 18.22 C 478.96 18.42 477.91 18.61 476.87 18.80 C 470.63 20.73 464.24 22.17 458.02 24.16 C 456.71 24.51 455.42 24.85 454.13 25.23 C 452.09 25.76 450.04 26.35 448.18 27.35 L 447.63 27.61 C 447.53 28.22 447.35 29.45 447.25 30.06 C 443.54 39.92 440.28 49.94 436.74 59.86 C 433.54 69.24 430.05 78.52 426.87 87.91 C 426.53 88.90 426.18 89.88 425.82 90.86 C 425.50 91.88 425.16 92.90 424.81 93.91 C 423.24 98.32 421.75 102.75 420.17 107.14 C 417.09 115.77 414.10 124.44 411.24 133.14 C 410.88 134.14 410.54 135.15 410.22 136.16 C 409.83 137.14 409.46 138.11 409.10 139.10 C 407.86 142.79 406.53 146.46 405.31 150.16 C 404.31 152.91 403.33 155.68 402.32 158.43 C 402.77 158.37 403.68 158.24 404.14 158.17 C 405.40 157.71 406.69 157.28 407.97 156.85 L 407.99 156.70 C 412.37 155.71 416.63 154.29 420.96 153.10 C 424.37 152.10 427.76 151.03 431.25 150.31 C 433.78 145.09 434.48 139.24 436.63 133.88 C 440.59 133.02 444.29 130.89 448.36 130.69 L 447.68 131.31 C 446.54 133.01 446.52 135.15 446.06 137.09 C 445.21 142.31 444.03 147.48 443.33 152.72 C 444.95 152.18 446.57 151.61 448.20 151.07 L 448.22 150.80 C 450.43 150.24 452.59 149.53 454.73 148.74 C 461.51 146.64 468.05 143.57 475.14 142.59 C 475.43 139.04 475.63 135.36 477.46 132.20 C 480.48 127.34 479.18 121.39 479.42 115.98 C 479.65 117.47 479.85 118.96 480.07 120.45 C 480.85 100.16 483.81 80.03 486.59 59.93 C 488.67 45.14 491.84 30.54 494.58 15.87 C 494.70 15.46 494.94 14.63 495.06 14.22 C 492.37 14.62 489.75 15.35 487.15 16.12 M 393.91 35.89 C 390.87 37.05 387.91 38.38 384.99 39.81 C 369.23 49.36 358.68 65.12 349.76 80.82 C 348.44 83.50 347.17 86.22 345.83 88.89 C 345.62 89.42 345.21 90.48 345.00 91.01 C 342.61 96.21 341.39 101.83 339.52 107.21 C 335.61 118.51 334.91 130.58 334.46 142.41 C 336.87 147.81 337.31 154.09 340.94 158.92 C 344.63 165.19 352.02 168.57 359.18 167.72 C 377.92 166.10 393.21 152.48 403.24 137.43 C 408.69 125.70 413.54 113.69 418.90 101.91 C 420.78 96.16 422.46 90.32 423.93 84.44 L 425.19 83.90 C 424.65 83.75 423.56 83.47 423.02 83.32 C 416.54 85.32 410.16 87.64 403.73 89.79 C 399.56 91.32 395.30 92.60 391.15 94.18 C 390.12 94.51 389.09 94.87 388.08 95.24 C 385.88 96.06 383.67 96.82 381.44 97.52 C 380.93 99.06 380.46 100.61 380.05 102.17 C 379.40 105.10 378.71 108.03 377.86 110.91 C 377.64 112.00 377.43 113.10 377.24 114.21 C 376.40 117.18 375.41 120.16 375.26 123.27 L 376.61 121.73 L 377.12 122.98 C 383.11 119.23 390.06 117.21 396.80 115.24 C 397.22 115.31 398.08 115.44 398.51 115.51 C 398.14 115.55 397.39 115.63 397.02 115.66 C 395.86 118.19 394.60 120.67 393.28 123.11 C 389.33 129.49 384.20 135.42 377.12 138.40 C 376.47 138.49 375.16 138.67 374.51 138.76 L 374.52 139.36 C 372.92 139.36 371.32 139.31 369.73 139.30 C 365.83 138.20 362.25 135.30 361.54 131.14 C 361.05 126.38 361.12 121.46 362.51 116.84 C 365.43 106.19 369.75 95.88 375.72 86.57 C 380.08 79.89 385.42 73.11 393.25 70.46 C 396.78 69.03 401.08 69.40 403.66 72.45 C 404.01 72.50 404.70 72.59 405.05 72.64 C 410.61 65.40 416.64 58.52 422.82 51.81 C 421.19 43.15 414.04 35.73 405.15 34.57 L 404.74 34.66 C 401.06 34.24 397.48 35.16 393.91 35.89 M 352.82 40.77 C 348.36 42.50 343.67 43.52 339.16 45.11 C 337.08 45.68 335.02 46.32 332.97 46.98 C 331.59 47.37 330.19 47.69 328.80 48.02 C 328.62 48.53 328.24 49.53 328.06 50.04 C 326.98 54.28 325.84 58.52 325.13 62.84 C 324.13 64.12 323.96 65.75 323.67 67.29 C 322.55 74.52 319.16 81.23 318.46 88.53 C 318.06 89.27 317.67 90.02 317.29 90.78 C 317.30 95.54 315.74 100.07 314.81 104.69 C 314.01 108.13 313.64 111.74 311.85 114.85 C 310.82 101.95 311.37 88.98 311.50 76.05 C 311.35 69.64 312.78 63.34 312.62 56.94 C 312.41 53.64 314.07 50.38 313.13 47.14 L 314.00 47.00 C 314.06 46.55 314.18 45.66 314.24 45.21 C 312.78 45.36 311.33 45.56 309.93 45.98 C 301.63 49.15 292.80 50.97 284.80 54.83 C 284.63 56.26 284.45 57.68 284.26 59.11 C 283.71 60.67 283.27 62.27 282.80 63.87 C 281.89 67.57 281.02 71.30 279.81 74.92 C 279.60 75.97 279.41 77.02 279.21 78.07 C 277.51 83.62 276.52 89.35 274.94 94.93 C 274.34 97.64 273.62 100.32 273.03 103.04 C 271.51 108.64 270.42 114.35 268.86 119.93 C 268.63 121.01 268.41 122.08 268.20 123.16 C 266.60 128.74 265.48 134.45 263.98 140.06 C 263.38 142.73 262.69 145.39 262.15 148.07 C 260.50 153.64 259.53 159.39 257.87 164.96 C 257.62 166.32 257.40 167.69 257.17 169.06 C 256.78 170.37 256.44 171.71 256.10 173.04 C 255.05 176.55 254.18 180.11 253.48 183.71 C 255.26 182.82 257.13 182.07 258.78 180.94 C 266.21 178.57 273.20 175.00 280.48 172.22 C 283.19 159.40 285.54 146.49 288.86 133.80 C 289.41 135.16 289.93 136.54 290.25 137.98 C 291.22 143.35 293.40 148.40 294.53 153.74 C 295.67 159.27 297.54 164.61 299.47 169.90 C 300.24 169.54 301.01 169.18 301.78 168.82 C 302.15 168.69 302.88 168.42 303.25 168.28 C 310.92 165.26 318.61 162.26 326.23 159.11 C 327.68 153.17 326.75 146.97 328.37 141.07 C 330.98 129.67 333.40 118.22 336.06 106.83 C 341.99 85.58 348.35 64.43 354.04 43.12 L 354.32 43.11 C 354.44 42.20 354.57 41.29 354.70 40.39 C 354.23 40.48 353.29 40.67 352.82 40.77 M 268.11 56.25 C 267.57 56.39 266.47 56.66 265.93 56.80 C 262.24 58.28 258.30 59.06 254.68 60.70 C 253.51 64.12 252.91 67.70 252.22 71.24 C 251.44 74.20 250.63 77.15 250.00 80.14 C 248.37 85.49 247.88 91.16 245.59 96.30 C 244.93 103.63 241.63 110.41 241.01 117.74 C 239.37 127.64 236.19 137.21 234.41 147.07 C 232.79 154.73 229.95 162.15 229.13 169.95 C 228.13 174.81 227.02 179.64 225.77 184.43 C 227.18 184.45 227.97 183.97 228.16 182.98 C 228.89 182.78 230.34 182.37 231.07 182.17 C 231.08 182.06 231.11 181.85 231.12 181.75 C 238.33 179.33 245.24 176.09 252.30 173.25 C 254.17 162.05 256.52 150.92 258.89 139.81 C 261.55 128.92 264.03 117.97 266.99 107.15 C 271.45 89.09 277.17 71.37 282.00 53.43 L 282.51 53.28 C 282.54 52.81 282.61 51.86 282.64 51.38 C 277.86 53.21 272.87 54.38 268.11 56.25 M 246.07 62.20 C 239.05 63.79 231.99 65.29 225.05 67.20 C 223.68 67.43 222.31 67.64 220.96 67.87 C 218.06 68.82 215.05 69.34 212.09 70.06 C 209.06 70.67 206.01 71.28 203.04 72.15 C 201.36 72.41 199.68 72.65 198.07 73.20 C 196.42 73.52 194.78 73.85 193.16 74.27 C 190.30 74.95 187.42 75.57 184.50 75.96 C 183.24 86.24 182.74 96.60 182.15 106.94 C 183.20 106.82 185.30 106.57 186.35 106.45 C 186.36 106.25 186.37 105.86 186.38 105.67 C 187.31 105.58 189.17 105.40 190.10 105.31 C 191.63 104.75 193.19 104.27 194.75 103.77 C 199.87 102.51 204.97 101.14 210.07 99.77 C 211.09 99.85 212.12 99.91 213.14 99.95 C 212.57 100.08 211.42 100.34 210.85 100.47 C 194.17 120.55 177.09 140.31 160.36 160.34 C 158.12 162.70 158.81 166.08 158.58 169.01 C 158.54 178.27 157.46 187.46 157.28 196.71 C 158.32 196.57 160.40 196.31 161.44 196.18 C 161.45 196.06 161.46 195.83 161.47 195.71 C 175.01 192.89 188.47 189.58 202.10 187.19 C 209.09 185.75 216.12 184.46 223.17 183.28 C 225.04 172.77 226.03 162.13 228.01 151.64 C 215.34 154.43 202.62 157.08 189.94 159.79 C 194.04 153.41 198.94 147.57 203.75 141.72 C 217.39 125.54 230.65 109.02 244.26 92.84 C 246.37 82.90 247.95 72.82 249.45 62.78 L 250.07 61.37 C 249.07 61.58 247.07 61.99 246.07 62.20 M 158.11 71.04 C 156.03 71.62 153.97 72.28 151.87 72.83 C 147.01 74.42 142.02 75.62 137.13 77.10 C 131.69 78.71 126.12 79.91 120.76 81.77 C 120.02 83.13 119.56 84.62 119.09 86.09 C 118.46 88.09 117.80 90.08 117.17 92.09 C 116.83 93.09 116.49 94.09 116.17 95.10 C 114.75 99.40 113.44 103.74 111.98 108.03 C 110.69 112.04 109.28 116.01 108.12 120.07 C 107.34 122.34 106.64 124.64 105.78 126.89 C 105.64 127.44 105.36 128.54 105.22 129.09 C 104.85 130.09 104.49 131.11 104.14 132.12 C 103.38 134.39 102.71 136.70 101.97 138.98 C 101.65 139.98 101.32 140.99 100.99 142.00 C 98.84 148.25 96.97 154.59 94.90 160.86 C 94.57 161.89 94.24 162.91 93.90 163.94 C 92.43 168.82 90.17 173.40 88.13 178.06 C 86.26 182.25 84.60 186.53 82.79 190.75 C 82.01 192.91 81.11 195.04 80.25 197.18 C 79.43 199.06 78.60 200.94 77.70 202.79 C 77.68 203.22 77.63 204.07 77.60 204.50 C 78.81 203.93 80.10 203.59 81.40 203.28 C 90.97 200.83 100.75 199.09 110.16 196.10 C 110.91 191.20 112.48 186.47 113.74 181.69 C 117.12 180.49 120.56 179.47 124.07 178.76 C 123.98 180.74 123.71 182.78 122.41 184.38 L 123.20 185.90 C 122.78 190.50 120.79 194.96 121.29 199.64 C 131.78 195.31 142.62 191.90 153.34 188.16 C 155.54 174.85 156.91 161.37 157.92 147.90 C 159.18 126.81 161.65 105.79 164.88 84.89 C 165.80 80.10 166.97 75.29 166.90 70.38 L 167.78 70.25 C 167.78 69.74 167.77 68.71 167.77 68.19 C 164.55 69.16 161.33 70.09 158.11 71.04 M 79.05 76.87 C 78.91 77.00 78.62 77.25 78.47 77.38 C 76.47 77.41 74.48 77.46 72.48 77.49 L 72.47 78.33 C 66.55 78.57 60.94 80.76 55.23 82.17 C 54.16 82.45 53.09 82.75 52.02 83.06 C 49.97 83.69 47.92 84.34 45.84 84.90 C 41.97 86.19 37.96 86.95 34.08 88.21 C 32.92 88.37 31.76 88.53 30.60 88.68 C 30.47 89.82 30.33 90.97 30.19 92.11 C 29.67 94.42 29.43 96.78 29.19 99.13 C 28.66 101.39 28.37 103.68 27.90 105.95 C 27.61 107.95 27.34 109.97 26.92 111.95 C 26.05 117.35 24.97 122.71 24.20 128.12 C 23.69 130.08 23.43 132.09 23.19 134.09 C 22.59 136.06 22.34 138.10 22.12 140.13 C 20.45 147.67 19.50 155.35 17.79 162.87 C 17.57 164.29 17.38 165.71 17.17 167.14 C 15.85 172.37 15.23 177.75 13.99 183.01 C 13.27 188.09 11.88 193.05 11.11 198.13 C 9.34 205.09 8.29 212.22 6.36 219.15 C 7.96 219.19 9.57 219.24 11.17 219.30 L 11.23 218.74 C 22.06 219.04 32.94 217.04 43.00 213.06 C 57.82 206.69 70.84 196.53 81.37 184.38 C 85.85 179.61 86.59 172.83 88.81 166.92 C 90.19 162.54 91.75 158.22 93.12 153.84 C 93.26 149.13 89.30 145.30 85.12 143.70 C 80.81 142.61 76.47 142.65 72.13 143.51 C 86.29 130.80 100.44 115.38 103.11 95.76 C 104.24 89.89 103.11 82.86 97.56 79.58 C 91.96 76.60 85.25 76.36 79.05 76.87 M 375.41 107.28 C 375.09 107.74 374.44 108.66 374.12 109.13 C 373.48 110.78 372.82 112.43 372.20 114.10 C 369.80 120.88 367.26 127.90 367.63 135.22 C 368.18 135.50 369.27 136.08 369.82 136.37 C 374.66 136.78 379.33 134.81 382.86 131.57 C 380.50 132.60 377.91 132.89 375.37 132.47 C 375.09 130.23 375.20 127.98 375.43 125.75 C 374.72 125.62 373.31 125.36 372.60 125.23 C 372.42 123.14 372.48 121.04 372.82 118.97 C 374.28 114.09 375.89 109.14 376.24 104.03 C 375.94 105.11 375.66 106.19 375.41 107.28 M 208.16 152.24 C 207.87 152.53 207.29 153.12 206.99 153.42 C 214.42 152.53 221.63 149.21 229.12 149.63 L 230.31 151.19 C 232.48 143.43 234.43 135.56 235.70 127.61 C 235.84 127.54 236.11 127.39 236.25 127.32 C 236.84 123.20 238.28 119.25 238.76 115.11 C 228.63 127.54 218.40 139.90 208.16 152.24 M 482.11 130.51 C 481.74 130.51 481.00 130.50 480.63 130.50 L 480.52 131.61 L 479.56 131.49 C 477.19 137.14 476.24 144.50 480.66 149.41 C 483.19 150.51 485.92 150.97 488.64 151.33 L 488.03 150.96 C 496.24 150.60 503.62 145.91 509.06 140.01 C 512.96 135.80 515.83 129.84 514.29 124.03 C 513.08 120.47 509.32 119.12 506.17 117.81 C 504.79 117.78 503.40 117.76 502.03 117.76 C 494.12 119.38 486.73 123.82 482.11 130.51 M 88.27 141.73 C 90.87 143.61 93.13 145.91 95.18 148.37 C 98.13 139.62 101.29 130.92 103.75 122.01 C 98.74 128.69 94.60 136.11 88.27 141.73 Z" />
<path fill="#000001" opacity="1.00" d=" M 463.24 40.46 C 463.18 41.10 463.08 42.38 463.03 43.03 L 465.28 41.28 C 464.32 42.36 463.07 43.41 463.14 45.02 C 460.07 61.72 456.72 78.36 453.67 95.06 C 453.23 98.16 451.91 101.13 452.19 104.32 C 452.01 104.86 451.66 105.96 451.48 106.50 C 450.30 106.92 449.14 107.35 447.97 107.76 C 446.51 108.31 444.97 108.55 443.45 108.82 C 445.50 104.05 446.48 98.94 448.11 94.03 C 448.46 92.71 448.83 91.39 449.23 90.08 C 452.41 79.00 455.79 67.98 458.83 56.86 C 459.99 53.26 460.72 49.50 462.34 46.06 C 462.49 44.17 462.33 42.20 463.24 40.46 Z" />
<path fill="#000001" opacity="1.00" d=" M 132.87 110.92 C 134.18 105.54 136.09 100.33 137.19 94.90 C 137.23 96.32 137.26 97.74 137.25 99.17 C 133.78 117.01 131.42 135.13 128.04 152.99 C 127.56 154.43 126.29 155.41 125.45 156.64 C 123.74 157.15 122.01 157.64 120.28 158.12 C 124.28 142.34 128.85 126.70 132.87 110.92 Z" />
<path fill="#000001" opacity="1.00" d=" M 58.63 114.71 C 63.18 113.51 67.74 111.94 72.53 112.63 C 72.48 114.21 72.85 115.89 72.31 117.42 C 69.22 124.54 63.53 129.99 57.91 135.15 C 56.28 136.73 54.31 137.91 52.38 139.09 C 54.23 130.91 56.07 122.70 58.63 114.71 Z" />
<path fill="#000001" opacity="1.00" d=" M 509.04 167.34 C 519.78 165.81 530.26 162.91 540.94 161.00 C 540.89 161.56 540.79 162.68 540.75 163.25 C 529.88 166.69 519.61 171.73 508.96 175.75 C 485.28 185.17 461.70 194.87 438.00 204.28 C 431.34 207.25 424.57 209.98 417.68 212.38 C 417.38 212.50 416.79 212.74 416.49 212.86 C 416.12 213.16 415.38 213.76 415.01 214.06 C 396.20 222.10 377.14 229.53 358.23 237.34 C 352.96 239.29 347.94 241.95 342.46 243.29 C 343.01 241.97 343.78 240.75 344.87 239.80 C 351.56 233.52 358.59 227.61 365.26 221.30 C 356.96 223.07 348.91 225.79 340.73 228.01 C 315.59 234.97 290.57 242.39 265.39 249.19 C 267.59 245.70 271.69 244.26 274.85 241.83 C 282.92 236.15 291.47 231.16 299.32 225.18 C 294.48 225.96 289.96 227.95 285.25 229.22 C 262.84 236.10 240.41 242.94 218.03 249.91 C 207.47 252.86 197.17 256.81 186.47 259.23 C 186.88 258.12 187.46 257.14 188.23 256.28 C 196.81 248.43 205.95 241.16 214.36 233.14 C 196.45 238.93 179.02 246.17 161.10 251.95 C 157.04 252.95 153.20 254.63 149.27 256.01 C 136.37 260.05 124.06 265.91 110.95 269.27 C 111.08 268.67 111.34 267.48 111.47 266.89 C 117.29 261.54 123.57 256.71 128.97 250.92 C 131.60 248.08 135.17 246.09 137.05 242.59 C 130.80 242.87 125.06 245.58 119.03 246.97 C 100.71 252.82 82.13 257.85 63.73 263.49 C 55.96 265.54 48.47 268.68 40.52 270.05 C 42.05 265.66 46.48 263.69 49.50 260.51 C 52.64 257.38 55.60 254.04 59.22 251.44 C 61.02 250.27 62.23 248.48 63.10 246.55 C 52.94 246.54 43.10 249.53 33.04 250.57 C 26.33 251.20 19.75 252.87 13.00 253.07 C 13.03 252.51 13.11 251.39 13.15 250.82 C 22.24 248.45 30.94 244.85 39.90 242.10 C 55.80 236.59 71.80 231.39 87.75 226.03 C 98.48 222.37 109.29 218.73 120.49 216.82 C 118.52 223.36 110.67 225.14 107.89 231.23 C 111.99 230.35 116.05 229.30 119.97 227.82 C 127.18 225.15 134.72 223.36 141.67 220.04 C 146.38 218.17 151.23 216.69 155.98 214.91 C 169.82 210.32 183.55 205.40 197.46 201.00 C 192.21 208.14 185.60 214.11 180.13 221.06 C 193.94 217.29 207.36 212.23 221.08 208.14 C 234.81 203.76 248.50 199.25 262.29 195.06 C 256.92 201.94 250.61 208.03 245.19 214.87 C 283.60 202.85 321.95 190.64 360.48 179.07 C 354.04 185.50 347.17 191.48 340.62 197.80 C 344.80 197.06 348.78 195.51 352.85 194.35 C 372.13 188.53 391.40 182.70 410.67 176.85 C 416.26 175.07 421.98 173.70 427.48 171.66 C 427.68 171.64 428.07 171.60 428.27 171.59 C 432.63 171.40 436.63 169.52 440.78 168.37 C 445.95 166.87 451.09 165.27 456.32 163.99 C 455.25 170.42 448.15 173.62 446.92 180.08 C 467.55 175.47 488.43 172.01 509.04 167.34 Z" />
<path fill="#000001" opacity="1.00" d=" M 46.59 164.60 C 53.40 162.40 60.49 160.45 67.71 161.33 C 68.04 162.91 68.44 164.48 68.51 166.11 C 64.81 174.70 55.26 177.83 47.58 181.79 C 47.32 181.95 46.79 182.28 46.53 182.45 C 45.58 182.56 43.68 182.80 42.73 182.92 C 44.09 176.83 45.04 170.65 46.59 164.60 Z" />
</g>
<g id="#ffffffff">
<path fill="#ffffff" opacity="1.00" d=" M 258.75 0.00 L 288.30 0.00 C 290.73 0.32 293.19 0.50 295.66 0.60 L 295.39 1.37 C 297.61 1.45 299.83 1.58 302.04 1.76 C 303.97 2.29 305.93 2.68 307.89 3.14 C 311.96 3.87 315.98 4.91 319.91 6.22 C 320.48 6.34 321.61 6.59 322.18 6.71 C 324.24 7.48 326.33 8.18 328.45 8.80 L 328.56 9.18 C 330.12 9.65 331.67 10.18 333.23 10.70 C 335.58 11.81 337.97 12.85 340.41 13.77 L 340.65 14.16 C 342.58 14.97 344.49 15.86 346.42 16.71 L 346.61 17.21 C 347.77 17.71 348.93 18.24 350.10 18.75 C 360.08 24.60 369.54 31.33 378.15 39.07 C 378.39 39.44 378.87 40.17 379.11 40.53 C 369.92 46.40 363.29 55.25 356.81 63.82 C 358.37 58.18 360.45 52.65 361.50 46.90 C 361.99 44.52 358.90 44.18 357.38 43.38 C 357.78 41.26 357.60 39.13 356.40 37.28 C 346.33 39.54 336.63 43.20 326.66 45.87 C 322.96 55.46 321.81 65.81 318.79 75.62 C 318.36 70.37 319.50 65.19 319.71 59.97 C 319.87 56.19 321.52 52.12 319.41 48.61 C 318.72 48.54 317.34 48.40 316.64 48.32 C 316.64 46.37 316.63 44.42 316.54 42.47 C 314.66 42.38 312.72 42.17 310.91 42.81 C 303.26 45.25 295.66 47.87 288.01 50.29 C 286.73 50.94 285.57 49.83 284.38 49.56 C 282.40 48.61 280.21 49.35 278.25 49.92 C 269.64 52.80 260.98 55.52 252.39 58.46 C 249.53 58.86 246.63 58.99 243.84 59.75 C 224.52 64.43 205.12 68.82 185.69 73.00 C 184.36 73.49 182.55 73.53 181.81 74.93 C 180.28 81.16 180.83 87.65 180.00 93.98 C 179.46 99.03 179.23 104.12 179.23 109.21 C 179.86 109.59 181.13 110.35 181.77 110.74 C 181.68 112.35 181.60 113.96 181.51 115.57 C 182.62 116.28 183.47 117.67 184.94 117.57 C 188.43 117.01 191.74 115.69 195.09 114.61 C 186.81 125.05 177.79 134.90 169.42 145.28 C 167.95 147.15 166.27 148.83 164.46 150.37 C 165.13 144.95 165.65 139.51 165.89 134.04 C 167.39 122.80 168.33 111.47 170.24 100.28 C 171.45 91.28 173.45 82.42 174.77 73.45 C 173.45 72.59 172.08 71.81 170.69 71.08 C 170.67 69.17 170.61 67.26 170.48 65.35 C 163.81 65.68 157.43 68.31 151.32 70.84 C 165.00 49.42 183.78 31.32 205.90 18.75 C 207.06 18.24 208.22 17.72 209.39 17.21 L 209.58 16.71 C 211.51 15.86 213.41 14.97 215.35 14.15 L 215.58 13.76 C 218.04 12.85 220.45 11.80 222.81 10.67 C 224.35 10.16 225.90 9.64 227.46 9.17 L 227.55 8.80 C 229.66 8.17 231.75 7.48 233.82 6.72 C 234.39 6.59 235.51 6.33 236.08 6.20 C 238.51 5.37 240.99 4.69 243.52 4.24 L 243.53 3.69 C 245.04 3.57 246.56 3.42 248.07 3.27 C 250.01 2.74 251.97 2.30 253.91 1.78 C 256.54 1.57 261.81 1.17 264.44 0.97 L 258.75 0.00 Z" />
<path fill="#ffffff" opacity="1.00" d=" M 517.76 9.86 C 518.09 7.63 520.96 9.08 522.40 8.79 L 522.24 9.40 C 515.74 33.77 509.32 58.17 502.88 82.56 C 500.29 92.10 498.10 101.78 495.21 111.23 C 494.38 111.44 492.71 111.87 491.87 112.08 C 491.90 110.78 491.93 109.47 491.98 108.17 C 492.84 104.41 493.86 100.68 495.01 96.99 C 495.93 92.67 497.10 88.41 498.30 84.16 C 498.43 83.57 498.68 82.38 498.80 81.79 C 499.66 78.93 500.34 76.03 501.13 73.16 C 504.94 58.27 509.23 43.48 512.70 28.50 C 512.85 28.47 513.15 28.39 513.31 28.36 C 513.43 27.20 513.57 26.04 513.73 24.88 C 515.35 19.96 516.48 14.89 517.76 9.86 Z" />
<path fill="#ffffff" opacity="1.00" d=" M 487.15 16.12 C 489.75 15.35 492.37 14.62 495.06 14.22 C 494.94 14.63 494.70 15.46 494.58 15.87 C 487.88 16.80 481.53 19.15 475.00 20.78 C 468.15 22.56 461.36 24.60 454.57 26.58 C 452.53 26.86 451.84 28.88 451.21 30.54 C 438.20 67.69 425.36 104.91 412.33 142.07 C 410.69 146.88 408.56 151.59 407.99 156.70 L 407.97 156.85 C 406.69 157.28 405.40 157.71 404.14 158.17 C 403.68 158.24 402.77 158.37 402.32 158.43 C 403.33 155.68 404.31 152.91 405.31 150.16 C 406.53 146.46 407.86 142.79 409.10 139.10 C 409.46 138.11 409.83 137.14 410.22 136.16 C 410.54 135.15 410.88 134.14 411.24 133.14 C 414.10 124.44 417.09 115.77 420.17 107.14 C 421.75 102.75 423.24 98.32 424.81 93.91 C 425.16 92.90 425.50 91.88 425.82 90.86 C 426.18 89.88 426.53 88.90 426.87 87.91 C 430.05 78.52 433.54 69.24 436.74 59.86 C 440.28 49.94 443.54 39.92 447.25 30.06 C 447.35 29.45 447.53 28.22 447.63 27.61 L 448.18 27.35 C 450.04 26.35 452.09 25.76 454.13 25.23 C 455.42 24.85 456.71 24.51 458.02 24.16 C 464.24 22.17 470.63 20.73 476.87 18.80 C 477.91 18.61 478.96 18.42 480.01 18.22 C 482.33 17.35 484.72 16.66 487.15 16.12 Z" />
<path fill="#ffffff" opacity="1.00" d=" M 393.91 35.89 C 397.48 35.16 401.06 34.24 404.74 34.66 C 393.06 36.46 382.68 43.12 374.71 51.63 C 363.66 63.54 354.91 77.54 348.59 92.47 C 345.79 100.44 343.06 108.48 341.11 116.70 C 339.59 128.66 337.35 141.39 342.19 152.91 C 344.68 160.39 350.95 167.14 359.18 167.72 C 352.02 168.57 344.63 165.19 340.94 158.92 C 334.39 147.60 334.08 133.62 337.08 121.15 C 339.14 110.97 341.56 100.83 345.00 91.01 C 345.21 90.48 345.62 89.42 345.83 88.89 C 347.17 86.22 348.44 83.50 349.76 80.82 C 358.68 65.12 369.23 49.36 384.99 39.81 C 387.91 38.38 390.87 37.05 393.91 35.89 Z" />
<path fill="#ffffff" opacity="1.00" d=" M 352.82 40.77 C 353.29 40.67 354.23 40.48 354.70 40.39 C 354.57 41.29 354.44 42.20 354.32 43.11 L 354.04 43.12 C 346.55 43.13 339.80 46.93 332.63 48.61 C 328.67 65.07 324.58 81.50 320.69 97.97 C 319.22 103.82 317.70 109.66 316.88 115.63 C 315.99 111.47 314.96 107.22 315.52 102.93 C 316.18 97.92 318.23 93.23 319.33 88.32 C 319.66 87.00 319.96 85.67 320.26 84.35 C 320.62 83.07 320.96 81.78 321.31 80.50 C 322.06 74.49 324.03 68.76 325.13 62.84 C 325.84 58.52 326.98 54.28 328.06 50.04 C 328.24 49.53 328.62 48.53 328.80 48.02 C 330.19 47.69 331.59 47.37 332.97 46.98 C 335.02 46.32 337.08 45.68 339.16 45.11 C 343.67 43.52 348.36 42.50 352.82 40.77 Z" />
<path fill="#ffffff" opacity="1.00" d=" M 458.73 71.98 C 461.79 61.29 464.64 50.54 468.16 39.99 C 464.45 62.10 459.55 84.01 456.20 106.18 C 453.79 107.34 451.16 107.97 448.85 109.32 C 448.63 108.93 448.19 108.15 447.97 107.76 C 449.14 107.35 450.30 106.92 451.48 106.50 C 451.66 105.96 452.01 104.86 452.19 104.32 L 452.45 103.63 C 454.60 93.10 455.62 82.31 458.73 71.98 Z" />
<path fill="#ffffff" opacity="1.00" d=" M 309.93 45.98 C 311.33 45.56 312.78 45.36 314.24 45.21 C 314.18 45.66 314.06 46.55 314.00 47.00 L 313.13 47.14 C 306.54 48.15 300.48 51.18 294.05 52.84 C 292.03 53.65 288.99 53.81 288.57 56.45 C 279.22 94.95 269.89 133.47 260.47 171.96 C 259.68 174.91 259.32 177.94 258.78 180.94 C 257.13 182.07 255.26 182.82 253.48 183.71 C 254.18 180.11 255.05 176.55 256.10 173.04 C 256.44 171.71 256.78 170.37 257.17 169.06 C 257.40 167.69 257.62 166.32 257.87 164.96 C 259.53 159.39 260.50 153.64 262.15 148.07 C 262.69 145.39 263.38 142.73 263.98 140.06 C 265.48 134.45 266.60 128.74 268.20 123.16 C 268.41 122.08 268.63 121.01 268.86 119.93 C 270.42 114.35 271.51 108.64 273.03 103.04 C 273.62 100.32 274.34 97.64 274.94 94.93 C 276.52 89.35 277.51 83.62 279.21 78.07 C 279.41 77.02 279.60 75.97 279.81 74.92 C 281.02 71.30 281.89 67.57 282.80 63.87 C 283.27 62.27 283.71 60.67 284.26 59.11 C 284.45 57.68 284.63 56.26 284.80 54.83 C 292.80 50.97 301.63 49.15 309.93 45.98 Z" />
<path fill="#ffffff" opacity="1.00" d=" M 268.11 56.25 C 272.87 54.38 277.86 53.21 282.64 51.38 C 282.61 51.86 282.54 52.81 282.51 53.28 L 282.00 53.43 C 274.26 55.77 266.45 58.04 258.91 60.93 C 257.64 63.77 257.35 66.90 256.62 69.89 C 250.11 97.58 243.89 125.33 237.32 153.00 C 235.30 162.59 232.49 172.04 231.12 181.75 C 231.11 181.85 231.08 182.06 231.07 182.17 C 230.34 182.37 228.89 182.78 228.16 182.98 C 228.18 177.94 228.71 172.90 230.05 168.03 C 232.58 159.49 233.28 150.55 236.25 142.14 C 237.84 131.69 240.44 121.44 243.33 111.28 C 243.66 109.99 243.98 108.68 244.29 107.38 C 246.26 98.31 247.96 89.19 250.00 80.14 C 250.63 77.15 251.44 74.20 252.22 71.24 C 252.91 67.70 253.51 64.12 254.68 60.70 C 258.30 59.06 262.24 58.28 265.93 56.80 C 266.47 56.66 267.57 56.39 268.11 56.25 Z" />
<path fill="#ffffff" opacity="1.00" d=" M 246.07 62.20 C 247.07 61.99 249.07 61.58 250.07 61.37 L 249.45 62.78 C 244.23 63.80 238.99 64.76 233.86 66.20 C 218.78 69.75 203.64 73.02 188.53 76.42 C 187.82 86.17 187.02 95.91 186.38 105.67 C 186.37 105.86 186.36 106.25 186.35 106.45 C 185.30 106.57 183.20 106.82 182.15 106.94 C 182.74 96.60 183.24 86.24 184.50 75.96 C 187.42 75.57 190.30 74.95 193.16 74.27 C 194.78 73.85 196.42 73.52 198.07 73.20 C 199.68 72.65 201.36 72.41 203.04 72.15 C 206.01 71.28 209.06 70.67 212.09 70.06 C 215.05 69.34 218.06 68.82 220.96 67.87 C 222.31 67.64 223.68 67.43 225.05 67.20 C 231.99 65.29 239.05 63.79 246.07 62.20 Z" />
<path fill="#ffffff" opacity="1.00" d=" M 158.11 71.04 C 161.33 70.09 164.55 69.16 167.77 68.19 C 167.77 68.71 167.78 69.74 167.78 70.25 L 166.90 70.38 C 161.73 71.05 156.89 73.11 151.86 74.39 C 143.73 76.59 135.62 78.92 127.49 81.12 C 124.23 81.48 123.68 85.03 122.78 87.54 C 114.48 113.75 105.96 139.90 97.38 166.02 C 94.48 174.07 90.76 181.79 87.63 189.75 C 85.54 194.25 84.17 199.13 81.40 203.28 C 80.10 203.59 78.81 203.93 77.60 204.50 C 77.63 204.07 77.68 203.22 77.70 202.79 C 78.60 200.94 79.43 199.06 80.25 197.18 C 81.11 195.04 82.01 192.91 82.79 190.75 C 84.60 186.53 86.26 182.25 88.13 178.06 C 90.17 173.40 92.43 168.82 93.90 163.94 C 94.24 162.91 94.57 161.89 94.90 160.86 C 96.97 154.59 98.84 148.25 100.99 142.00 C 101.32 140.99 101.65 139.98 101.97 138.98 C 102.71 136.70 103.38 134.39 104.14 132.12 C 104.49 131.11 104.85 130.09 105.22 129.09 C 105.36 128.54 105.64 127.44 105.78 126.89 C 106.64 124.64 107.34 122.34 108.12 120.07 C 109.28 116.01 110.69 112.04 111.98 108.03 C 113.44 103.74 114.75 99.40 116.17 95.10 C 116.49 94.09 116.83 93.09 117.17 92.09 C 117.80 90.08 118.46 88.09 119.09 86.09 C 119.56 84.62 120.02 83.13 120.76 81.77 C 126.12 79.91 131.69 78.71 137.13 77.10 C 142.02 75.62 147.01 74.42 151.87 72.83 C 153.97 72.28 156.03 71.62 158.11 71.04 Z" />
<path fill="#ffffff" opacity="1.00" d=" M 72.47 78.33 L 72.48 77.49 C 74.48 77.46 76.47 77.41 78.47 77.38 L 77.82 77.93 C 68.52 79.72 59.41 82.35 50.35 85.09 C 45.42 86.67 40.19 87.31 35.37 89.21 C 33.64 91.64 34.12 95.11 33.47 97.98 C 30.02 119.33 26.16 140.61 22.31 161.89 C 21.45 166.43 20.44 170.96 20.17 175.60 C 20.05 175.23 19.81 174.49 19.69 174.12 C 18.53 182.80 16.55 191.33 14.89 199.92 C 13.74 206.21 11.76 212.34 11.23 218.74 L 11.17 219.30 C 9.57 219.24 7.96 219.19 6.36 219.15 C 8.29 212.22 9.34 205.09 11.11 198.13 C 11.88 193.05 13.27 188.09 13.99 183.01 C 15.23 177.75 15.85 172.37 17.17 167.14 C 17.38 165.71 17.57 164.29 17.79 162.87 C 19.50 155.35 20.45 147.67 22.12 140.13 C 22.34 138.10 22.59 136.06 23.19 134.09 C 23.43 132.09 23.69 130.08 24.20 128.12 C 24.97 122.71 26.05 117.35 26.92 111.95 C 27.34 109.97 27.61 107.95 27.90 105.95 C 28.37 103.68 28.66 101.39 29.19 99.13 C 29.43 96.78 29.67 94.42 30.19 92.11 C 30.33 90.97 30.47 89.82 30.60 88.68 C 31.76 88.53 32.92 88.37 34.08 88.21 C 37.96 86.95 41.97 86.19 45.84 84.90 C 47.92 84.34 49.97 83.69 52.02 83.06 C 53.09 82.75 54.16 82.45 55.23 82.17 C 60.94 80.76 66.55 78.57 72.47 78.33 Z" />
<path fill="#ffffff" opacity="1.00" d=" M 399.08 79.89 C 402.21 78.75 404.23 81.82 406.69 83.08 C 407.87 82.96 409.05 82.81 410.24 82.63 L 410.32 82.79 C 410.41 82.95 410.58 83.28 410.67 83.45 L 411.11 84.28 C 402.04 87.49 392.92 90.58 383.84 93.77 C 383.41 93.99 382.55 94.42 382.11 94.64 C 386.05 88.22 391.47 81.79 399.08 79.89 Z" />
<path fill="#ffffff" opacity="1.00" d=" M 403.73 89.79 C 410.16 87.64 416.54 85.32 423.02 83.32 C 423.56 83.47 424.65 83.75 425.19 83.90 L 423.93 84.44 C 411.26 89.10 398.40 93.24 385.68 97.77 C 383.34 105.06 381.78 112.58 380.13 120.05 C 378.94 120.59 377.75 121.11 376.61 121.73 L 375.26 123.27 C 375.41 120.16 376.40 117.18 377.24 114.21 C 377.43 113.10 377.64 112.00 377.86 110.91 C 378.71 108.03 379.40 105.10 380.05 102.17 C 380.46 100.61 380.93 99.06 381.44 97.52 C 383.67 96.82 385.88 96.06 388.08 95.24 C 389.09 94.87 390.12 94.51 391.15 94.18 C 395.30 92.60 399.56 91.32 403.73 89.79 Z" />
<path fill="#ffffff" opacity="1.00" d=" M 130.12 144.02 C 131.81 127.04 137.26 110.80 141.64 94.39 C 141.05 103.34 138.98 112.10 137.64 120.95 C 135.87 132.66 133.85 144.34 132.25 156.08 C 131.07 156.28 128.70 156.67 127.52 156.87 C 129.41 152.85 129.34 148.32 130.12 144.02 Z" />
<path fill="#ffffff" opacity="1.00" d=" M 213.14 99.95 C 213.81 99.89 215.14 99.78 215.80 99.72 C 198.52 120.50 180.83 140.94 163.52 161.69 C 162.54 173.01 162.30 184.38 161.47 195.71 C 161.46 195.83 161.45 196.06 161.44 196.18 C 160.40 196.31 158.32 196.57 157.28 196.71 C 157.46 187.46 158.54 178.27 158.58 169.01 C 158.81 166.08 158.12 162.70 160.36 160.34 C 177.09 140.31 194.17 120.55 210.85 100.47 C 211.42 100.34 212.57 100.08 213.14 99.95 Z" />
<path fill="#ffffff" opacity="1.00" d=" M 375.41 107.28 C 375.66 106.19 375.94 105.11 376.24 104.03 C 375.89 109.14 374.28 114.09 372.82 118.97 C 372.48 121.04 372.42 123.14 372.60 125.23 C 373.31 125.36 374.72 125.62 375.43 125.75 C 375.20 127.98 375.09 130.23 375.37 132.47 C 377.91 132.89 380.50 132.60 382.86 131.57 C 379.33 134.81 374.66 136.78 369.82 136.37 C 369.27 136.08 368.18 135.50 367.63 135.22 C 367.26 127.90 369.80 120.88 372.20 114.10 C 372.82 112.43 373.48 110.78 374.12 109.13 C 374.44 108.66 375.09 107.74 375.41 107.28 Z" />
<path fill="#ffffff" opacity="1.00" d=" M 72.53 112.63 C 73.56 112.63 75.61 112.63 76.64 112.64 C 76.59 114.40 76.94 116.25 76.36 117.96 C 72.16 126.85 64.70 133.57 56.78 139.14 C 56.68 138.36 56.58 137.59 56.47 136.82 C 56.83 136.40 57.55 135.57 57.91 135.15 C 63.53 129.99 69.22 124.54 72.31 117.42 C 72.85 115.89 72.48 114.21 72.53 112.63 Z" />
<path fill="#ffffff" opacity="1.00" d=" M 208.16 152.24 C 218.40 139.90 228.63 127.54 238.76 115.11 C 238.28 119.25 236.84 123.20 236.25 127.32 C 236.11 127.39 235.84 127.54 235.70 127.61 C 234.43 135.56 232.48 143.43 230.31 151.19 L 229.12 149.63 C 221.63 149.21 214.42 152.53 206.99 153.42 C 207.29 153.12 207.87 152.53 208.16 152.24 Z" />
<path fill="#ffffff" opacity="1.00" d=" M 398.51 115.51 C 399.50 115.44 400.51 115.36 401.51 115.28 C 398.41 121.59 395.19 128.09 389.86 132.86 C 385.74 136.75 380.40 139.92 374.52 139.36 L 374.51 138.76 C 375.16 138.67 376.47 138.49 377.12 138.40 C 384.20 135.42 389.33 129.49 393.28 123.11 C 394.60 120.67 395.86 118.19 397.02 115.66 C 397.39 115.63 398.14 115.55 398.51 115.51 Z" />
<path fill="#ffffff" opacity="1.00" d=" M 482.11 130.51 C 486.73 123.82 494.12 119.38 502.03 117.76 C 503.40 117.76 504.79 117.78 506.17 117.81 C 500.77 119.20 495.43 121.36 491.32 125.24 C 488.64 127.87 485.57 130.15 483.23 133.11 C 481.64 136.76 481.96 140.97 482.35 144.85 C 482.48 148.03 485.72 149.45 488.03 150.96 L 488.64 151.33 C 485.92 150.97 483.19 150.51 480.66 149.41 C 476.24 144.50 477.19 137.14 479.56 131.49 L 480.52 131.61 L 480.63 130.50 C 481.00 130.50 481.74 130.51 482.11 130.51 Z" />
<path fill="#ffffff" opacity="1.00" d=" M 448.36 130.69 C 449.15 130.68 450.74 130.65 451.54 130.64 C 450.45 137.36 448.62 143.98 448.22 150.80 L 448.20 151.07 C 446.57 151.61 444.95 152.18 443.33 152.72 C 444.03 147.48 445.21 142.31 446.06 137.09 C 446.52 135.15 446.54 133.01 447.68 131.31 L 448.36 130.69 Z" />
<path fill="#ffffff" opacity="1.00" d=" M 291.81 142.89 C 290.95 139.50 292.42 136.15 293.05 132.84 C 296.50 144.64 299.29 156.64 303.25 168.28 C 302.88 168.42 302.15 168.69 301.78 168.82 C 301.21 169.02 300.08 169.42 299.51 169.62 C 297.41 164.77 297.09 159.41 295.42 154.43 C 293.73 150.76 292.69 146.83 291.81 142.89 Z" />
<path fill="#ffffff" opacity="1.00" d=" M 333.78 150.93 C 334.12 151.63 334.48 152.32 334.83 153.01 C 336.80 157.24 337.89 161.85 340.19 165.93 C 343.08 171.27 348.00 175.66 353.93 177.25 C 358.30 178.15 362.80 177.72 367.21 177.46 L 367.97 176.92 C 380.15 174.59 390.88 167.34 399.23 158.38 C 399.38 158.81 399.67 159.68 399.82 160.11 C 400.86 160.55 401.95 160.94 402.97 161.47 C 402.78 163.82 401.28 166.86 403.94 168.39 C 406.83 168.82 409.55 167.48 412.28 166.75 C 417.83 164.91 423.65 163.82 428.97 161.31 C 428.65 164.73 428.47 168.16 428.27 171.59 C 428.07 171.60 427.68 171.64 427.48 171.66 C 421.98 173.70 416.26 175.07 410.67 176.85 C 391.40 182.70 372.13 188.53 352.85 194.35 C 348.78 195.51 344.80 197.06 340.62 197.80 C 347.17 191.48 354.04 185.50 360.48 179.07 C 321.95 190.64 283.60 202.85 245.19 214.87 C 250.61 208.03 256.92 201.94 262.29 195.06 C 248.50 199.25 234.81 203.76 221.08 208.14 C 207.36 212.23 193.94 217.29 180.13 221.06 C 185.60 214.11 192.21 208.14 197.46 201.00 C 183.55 205.40 169.82 210.32 155.98 214.91 C 151.23 216.69 146.38 218.17 141.67 220.04 C 139.49 215.16 137.71 210.10 135.45 205.25 C 142.18 203.75 148.56 201.00 155.05 198.71 C 155.76 199.12 156.48 199.53 157.20 199.94 C 157.22 202.12 157.32 204.30 157.51 206.48 C 159.70 206.76 161.95 206.88 164.10 206.25 C 183.89 201.31 203.93 197.47 223.98 193.80 C 226.98 193.31 230.19 194.35 233.02 192.94 C 238.93 190.40 244.89 187.98 250.84 185.51 C 251.57 185.81 253.03 186.40 253.77 186.70 C 253.61 188.57 253.47 190.44 253.37 192.32 C 254.81 192.73 256.34 194.06 257.89 193.29 C 265.97 190.05 273.92 186.50 282.00 183.26 C 284.18 182.35 287.04 181.33 287.34 178.59 C 288.82 170.90 290.05 163.15 292.09 155.58 C 293.16 158.97 294.08 162.40 295.04 165.82 C 296.52 170.43 298.50 174.87 299.88 179.51 C 305.42 180.29 310.19 176.74 315.25 175.11 C 320.78 172.62 326.85 171.18 332.03 167.97 C 334.25 162.55 333.40 156.62 333.78 150.93 Z" />
<path fill="#ffffff" opacity="1.00" d=" M 68.81 160.76 C 69.92 161.10 71.02 161.44 72.12 161.78 C 72.42 162.36 73.00 163.53 73.29 164.11 C 72.25 167.16 70.88 170.22 68.36 172.36 C 63.02 177.01 56.44 179.92 49.95 182.58 C 48.58 183.26 47.04 183.23 45.56 183.12 L 46.53 182.45 C 46.79 182.28 47.32 181.95 47.58 181.79 C 55.26 177.83 64.81 174.70 68.51 166.11 C 69.26 164.43 68.78 162.53 68.81 160.76 Z" />
<path fill="#ffffff" opacity="1.00" d=" M 124.39 179.79 C 125.83 179.24 127.28 178.72 128.74 178.22 C 127.92 184.52 126.25 190.70 126.23 197.08 C 125.10 196.92 122.63 198.89 122.17 197.09 C 122.83 191.31 123.69 185.57 124.39 179.79 Z" />
<path fill="#ffffff" opacity="1.00" d=" M 416.49 212.86 C 416.79 212.74 417.38 212.50 417.68 212.38 C 413.48 222.19 408.86 231.88 402.84 240.73 C 389.60 261.21 371.19 278.14 350.08 290.26 C 348.92 290.78 347.77 291.30 346.61 291.81 L 346.42 292.29 C 344.49 293.14 342.58 294.03 340.64 294.84 L 340.42 295.24 C 337.97 296.16 335.56 297.20 333.19 298.32 C 331.65 298.83 330.11 299.35 328.56 299.82 L 328.45 300.20 C 326.33 300.82 324.24 301.52 322.17 302.29 C 321.61 302.41 320.48 302.67 319.92 302.80 C 317.61 303.56 315.26 304.21 312.91 304.80 C 311.25 305.21 309.57 305.55 307.91 305.90 C 302.53 307.33 296.96 307.75 291.42 308.03 L 296.75 309.00 L 257.87 309.00 L 257.88 307.61 C 255.65 307.40 253.44 307.07 251.25 306.63 C 250.51 306.45 249.77 306.26 249.04 306.08 C 248.07 305.93 246.14 305.64 245.17 305.49 C 244.43 306.85 243.69 306.59 243.30 304.78 C 241.18 304.28 239.08 303.72 236.95 303.25 C 235.36 302.70 233.77 302.17 232.19 301.60 C 231.85 301.54 231.16 301.41 230.82 301.34 C 229.57 300.83 228.32 300.36 227.07 299.87 C 223.16 298.50 219.42 296.74 215.57 295.24 L 215.33 294.91 C 213.19 293.96 211.10 292.93 209.04 291.85 C 208.54 291.59 207.53 291.07 207.03 290.81 C 203.28 288.67 199.63 286.38 195.96 284.11 C 182.80 275.22 171.10 264.28 161.10 251.95 C 179.02 246.17 196.45 238.93 214.36 233.14 C 205.95 241.16 196.81 248.43 188.23 256.28 C 187.46 257.14 186.88 258.12 186.47 259.23 C 197.17 256.81 207.47 252.86 218.03 249.91 C 240.41 242.94 262.84 236.10 285.25 229.22 C 289.96 227.95 294.48 225.96 299.32 225.18 C 291.47 231.16 282.92 236.15 274.85 241.83 C 271.69 244.26 267.59 245.70 265.39 249.19 C 290.57 242.39 315.59 234.97 340.73 228.01 C 348.91 225.79 356.96 223.07 365.26 221.30 C 358.59 227.61 351.56 233.52 344.87 239.80 C 343.78 240.75 343.01 241.97 342.46 243.29 C 347.94 241.95 352.96 239.29 358.23 237.34 C 377.14 229.53 396.20 222.10 415.01 214.06 C 415.38 213.76 416.12 213.16 416.49 212.86 Z" />
</g>
<g id="#fcc31aff">
<path fill="#fcc31a" opacity="1.00" d=" M 522.24 9.40 C 532.14 10.32 541.75 13.31 551.67 13.93 C 539.72 39.48 527.55 65.06 519.20 92.09 C 517.13 98.59 515.15 105.12 513.33 111.69 C 505.76 111.63 498.19 111.77 490.65 112.43 C 490.97 110.47 491.35 108.53 491.91 106.64 L 491.98 108.17 C 491.93 109.47 491.90 110.78 491.87 112.08 C 492.71 111.87 494.38 111.44 495.21 111.23 C 498.10 101.78 500.29 92.10 502.88 82.56 C 509.32 58.17 515.74 33.77 522.24 9.40 Z" />
<path fill="#fcc31a" opacity="1.00" d=" M 475.00 20.78 C 481.53 19.15 487.88 16.80 494.58 15.87 C 491.84 30.54 488.67 45.14 486.59 59.93 C 483.81 80.03 480.85 100.16 480.07 120.45 C 479.85 118.96 479.65 117.47 479.42 115.98 C 479.18 121.39 480.48 127.34 477.46 132.20 C 475.63 135.36 475.43 139.04 475.14 142.59 C 468.05 143.57 461.51 146.64 454.73 148.74 C 452.59 149.53 450.43 150.24 448.22 150.80 C 448.62 143.98 450.45 137.36 451.54 130.64 C 450.74 130.65 449.15 130.68 448.36 130.69 C 444.29 130.89 440.59 133.02 436.63 133.88 C 434.48 139.24 433.78 145.09 431.25 150.31 C 427.76 151.03 424.37 152.10 420.96 153.10 C 416.63 154.29 412.37 155.71 407.99 156.70 C 408.56 151.59 410.69 146.88 412.33 142.07 C 425.36 104.91 438.20 67.69 451.21 30.54 C 451.84 28.88 452.53 26.86 454.57 26.58 C 461.36 24.60 468.15 22.56 475.00 20.78 M 463.24 40.46 C 462.33 42.20 462.49 44.17 462.34 46.06 C 460.72 49.50 459.99 53.26 458.83 56.86 C 455.79 67.98 452.41 79.00 449.23 90.08 C 448.83 91.39 448.46 92.71 448.11 94.03 C 446.48 98.94 445.50 104.05 443.45 108.82 C 444.97 108.55 446.51 108.31 447.97 107.76 C 448.19 108.15 448.63 108.93 448.85 109.32 C 451.16 107.97 453.79 107.34 456.20 106.18 C 459.55 84.01 464.45 62.10 468.16 39.99 C 464.64 50.54 461.79 61.29 458.73 71.98 C 455.62 82.31 454.60 93.10 452.45 103.63 L 452.19 104.32 C 451.91 101.13 453.23 98.16 453.67 95.06 C 456.72 78.36 460.07 61.72 463.14 45.02 C 463.07 43.41 464.32 42.36 465.28 41.28 L 463.03 43.03 C 463.08 42.38 463.18 41.10 463.24 40.46 Z" />
<path fill="#fcc31a" opacity="1.00" d=" M 404.74 34.66 L 405.15 34.57 C 414.04 35.73 421.19 43.15 422.82 51.81 C 416.64 58.52 410.61 65.40 405.05 72.64 C 404.70 72.59 404.01 72.50 403.66 72.45 C 401.08 69.40 396.78 69.03 393.25 70.46 C 385.42 73.11 380.08 79.89 375.72 86.57 C 369.75 95.88 365.43 106.19 362.51 116.84 C 361.12 121.46 361.05 126.38 361.54 131.14 C 362.25 135.30 365.83 138.20 369.73 139.30 C 371.32 139.31 372.92 139.36 374.52 139.36 C 380.40 139.92 385.74 136.75 389.86 132.86 C 395.19 128.09 398.41 121.59 401.51 115.28 C 400.51 115.36 399.50 115.44 398.51 115.51 C 398.08 115.44 397.22 115.31 396.80 115.24 C 390.06 117.21 383.11 119.23 377.12 122.98 L 376.61 121.73 C 377.75 121.11 378.94 120.59 380.13 120.05 C 381.78 112.58 383.34 105.06 385.68 97.77 C 398.40 93.24 411.26 89.10 423.93 84.44 C 422.46 90.32 420.78 96.16 418.90 101.91 C 413.54 113.69 408.69 125.70 403.24 137.43 C 393.21 152.48 377.92 166.10 359.18 167.72 C 350.95 167.14 344.68 160.39 342.19 152.91 C 337.35 141.39 339.59 128.66 341.11 116.70 C 343.06 108.48 345.79 100.44 348.59 92.47 C 354.91 77.54 363.66 63.54 374.71 51.63 C 382.68 43.12 393.06 36.46 404.74 34.66 Z" />
<path fill="#fcc31a" opacity="1.00" d=" M 332.63 48.61 C 339.80 46.93 346.55 43.13 354.04 43.12 C 348.35 64.43 341.99 85.58 336.06 106.83 C 333.40 118.22 330.98 129.67 328.37 141.07 C 326.75 146.97 327.68 153.17 326.23 159.11 C 318.61 162.26 310.92 165.26 303.25 168.28 C 299.29 156.64 296.50 144.64 293.05 132.84 C 292.42 136.15 290.95 139.50 291.81 142.89 C 292.69 146.83 293.73 150.76 295.42 154.43 C 297.09 159.41 297.41 164.77 299.51 169.62 C 300.08 169.42 301.21 169.02 301.78 168.82 C 301.01 169.18 300.24 169.54 299.47 169.90 C 297.54 164.61 295.67 159.27 294.53 153.74 C 293.40 148.40 291.22 143.35 290.25 137.98 C 289.93 136.54 289.41 135.16 288.86 133.80 C 285.54 146.49 283.19 159.40 280.48 172.22 C 273.20 175.00 266.21 178.57 258.78 180.94 C 259.32 177.94 259.68 174.91 260.47 171.96 C 269.89 133.47 279.22 94.95 288.57 56.45 C 288.99 53.81 292.03 53.65 294.05 52.84 C 300.48 51.18 306.54 48.15 313.13 47.14 C 314.07 50.38 312.41 53.64 312.62 56.94 C 312.78 63.34 311.35 69.64 311.50 76.05 C 311.37 88.98 310.82 101.95 311.85 114.85 C 313.64 111.74 314.01 108.13 314.81 104.69 C 315.74 100.07 317.30 95.54 317.29 90.78 C 317.67 90.02 318.06 89.27 318.46 88.53 C 319.16 81.23 322.55 74.52 323.67 67.29 C 323.96 65.75 324.13 64.12 325.13 62.84 C 324.03 68.76 322.06 74.49 321.31 80.50 C 320.96 81.78 320.62 83.07 320.26 84.35 C 319.96 85.67 319.66 87.00 319.33 88.32 C 318.23 93.23 316.18 97.92 315.52 102.93 C 314.96 107.22 315.99 111.47 316.88 115.63 C 317.70 109.66 319.22 103.82 320.69 97.97 C 324.58 81.50 328.67 65.07 332.63 48.61 Z" />
<path fill="#fcc31a" opacity="1.00" d=" M 258.91 60.93 C 266.45 58.04 274.26 55.77 282.00 53.43 C 277.17 71.37 271.45 89.09 266.99 107.15 C 264.03 117.97 261.55 128.92 258.89 139.81 C 256.52 150.92 254.17 162.05 252.30 173.25 C 245.24 176.09 238.33 179.33 231.12 181.75 C 232.49 172.04 235.30 162.59 237.32 153.00 C 243.89 125.33 250.11 97.58 256.62 69.89 C 257.35 66.90 257.64 63.77 258.91 60.93 Z" />
<path fill="#fcc31a" opacity="1.00" d=" M 233.86 66.20 C 238.99 64.76 244.23 63.80 249.45 62.78 C 247.95 72.82 246.37 82.90 244.26 92.84 C 230.65 109.02 217.39 125.54 203.75 141.72 C 198.94 147.57 194.04 153.41 189.94 159.79 C 202.62 157.08 215.34 154.43 228.01 151.64 C 226.03 162.13 225.04 172.77 223.17 183.28 C 216.12 184.46 209.09 185.75 202.10 187.19 C 188.47 189.58 175.01 192.89 161.47 195.71 C 162.30 184.38 162.54 173.01 163.52 161.69 C 180.83 140.94 198.52 120.50 215.80 99.72 C 215.14 99.78 213.81 99.89 213.14 99.95 C 212.12 99.91 211.09 99.85 210.07 99.77 C 204.97 101.14 199.87 102.51 194.75 103.77 C 193.19 104.27 191.63 104.75 190.10 105.31 C 189.17 105.40 187.31 105.58 186.38 105.67 C 187.02 95.91 187.82 86.17 188.53 76.42 C 203.64 73.02 218.78 69.75 233.86 66.20 Z" />
<path fill="#fcc31a" opacity="1.00" d=" M 151.86 74.39 C 156.89 73.11 161.73 71.05 166.90 70.38 C 166.97 75.29 165.80 80.10 164.88 84.89 C 161.65 105.79 159.18 126.81 157.92 147.90 C 156.91 161.37 155.54 174.85 153.34 188.16 C 142.62 191.90 131.78 195.31 121.29 199.64 C 120.79 194.96 122.78 190.50 123.20 185.90 L 122.41 184.38 C 123.71 182.78 123.98 180.74 124.07 178.76 C 120.56 179.47 117.12 180.49 113.74 181.69 C 112.48 186.47 110.91 191.20 110.16 196.10 C 100.75 199.09 90.97 200.83 81.40 203.28 C 84.17 199.13 85.54 194.25 87.63 189.75 C 90.76 181.79 94.48 174.07 97.38 166.02 C 105.96 139.90 114.48 113.75 122.78 87.54 C 123.68 85.03 124.23 81.48 127.49 81.12 C 135.62 78.92 143.73 76.59 151.86 74.39 M 130.12 144.02 C 129.34 148.32 129.41 152.85 127.52 156.87 C 128.70 156.67 131.07 156.28 132.25 156.08 C 133.85 144.34 135.87 132.66 137.64 120.95 C 138.98 112.10 141.05 103.34 141.64 94.39 C 137.26 110.80 131.81 127.04 130.12 144.02 M 132.87 110.92 C 128.85 126.70 124.28 142.34 120.28 158.12 C 122.01 157.64 123.74 157.15 125.45 156.64 C 126.29 155.41 127.56 154.43 128.04 152.99 C 131.42 135.13 133.78 117.01 137.25 99.17 C 137.26 97.74 137.23 96.32 137.19 94.90 C 136.09 100.33 134.18 105.54 132.87 110.92 M 124.39 179.79 C 123.69 185.57 122.83 191.31 122.17 197.09 C 122.63 198.89 125.10 196.92 126.23 197.08 C 126.25 190.70 127.92 184.52 128.74 178.22 C 127.28 178.72 125.83 179.24 124.39 179.79 Z" />
<path fill="#fcc31a" opacity="1.00" d=" M 79.05 76.87 C 85.25 76.36 91.96 76.60 97.56 79.58 C 103.11 82.86 104.24 89.89 103.11 95.76 C 100.44 115.38 86.29 130.80 72.13 143.51 C 76.47 142.65 80.81 142.61 85.12 143.70 C 89.30 145.30 93.26 149.13 93.12 153.84 C 91.75 158.22 90.19 162.54 88.81 166.92 C 86.59 172.83 85.85 179.61 81.37 184.38 C 70.84 196.53 57.82 206.69 43.00 213.06 C 32.94 217.04 22.06 219.04 11.23 218.74 C 11.76 212.34 13.74 206.21 14.89 199.92 C 16.55 191.33 18.53 182.80 19.69 174.12 C 19.81 174.49 20.05 175.23 20.17 175.60 C 20.44 170.96 21.45 166.43 22.31 161.89 C 26.16 140.61 30.02 119.33 33.47 97.98 C 34.12 95.11 33.64 91.64 35.37 89.21 C 40.19 87.31 45.42 86.67 50.35 85.09 C 59.41 82.35 68.52 79.72 77.82 77.93 L 78.47 77.38 C 78.62 77.25 78.91 77.00 79.05 76.87 M 58.63 114.71 C 56.07 122.70 54.23 130.91 52.38 139.09 C 54.31 137.91 56.28 136.73 57.91 135.15 C 57.55 135.57 56.83 136.40 56.47 136.82 C 56.58 137.59 56.68 138.36 56.78 139.14 C 64.70 133.57 72.16 126.85 76.36 117.96 C 76.94 116.25 76.59 114.40 76.64 112.64 C 75.61 112.63 73.56 112.63 72.53 112.63 C 67.74 111.94 63.18 113.51 58.63 114.71 M 68.81 160.76 C 68.78 162.53 69.26 164.43 68.51 166.11 C 68.44 164.48 68.04 162.91 67.71 161.33 C 60.49 160.45 53.40 162.40 46.59 164.60 C 45.04 170.65 44.09 176.83 42.73 182.92 C 43.68 182.80 45.58 182.56 46.53 182.45 L 45.56 183.12 C 47.04 183.23 48.58 183.26 49.95 182.58 C 56.44 179.92 63.02 177.01 68.36 172.36 C 70.88 170.22 72.25 167.16 73.29 164.11 C 73.00 163.53 72.42 162.36 72.12 161.78 C 71.02 161.44 69.92 161.10 68.81 160.76 Z" />
<path fill="#fcc31a" opacity="1.00" d=" M 245.59 96.30 C 247.88 91.16 248.37 85.49 250.00 80.14 C 247.96 89.19 246.26 98.31 244.29 107.38 C 243.98 108.68 243.66 109.99 243.33 111.28 C 240.44 121.44 237.84 131.69 236.25 142.14 C 233.28 150.55 232.58 159.49 230.05 168.03 C 228.71 172.90 228.18 177.94 228.16 182.98 C 227.97 183.97 227.18 184.45 225.77 184.43 C 227.02 179.64 228.13 174.81 229.13 169.95 C 229.95 162.15 232.79 154.73 234.41 147.07 C 236.19 137.21 239.37 127.64 241.01 117.74 C 241.63 110.41 244.93 103.63 245.59 96.30 Z" />
<path fill="#fcc31a" opacity="1.00" d=" M 339.52 107.21 C 341.39 101.83 342.61 96.21 345.00 91.01 C 341.56 100.83 339.14 110.97 337.08 121.15 C 334.08 133.62 334.39 147.60 340.94 158.92 C 337.31 154.09 336.87 147.81 334.46 142.41 C 334.91 130.58 335.61 118.51 339.52 107.21 Z" />
<path fill="#fcc31a" opacity="1.00" d=" M 491.32 125.24 C 495.43 121.36 500.77 119.20 506.17 117.81 C 509.32 119.12 513.08 120.47 514.29 124.03 C 515.83 129.84 512.96 135.80 509.06 140.01 C 503.62 145.91 496.24 150.60 488.03 150.96 C 485.72 149.45 482.48 148.03 482.35 144.85 C 481.96 140.97 481.64 136.76 483.23 133.11 C 485.57 130.15 488.64 127.87 491.32 125.24 Z" />
</g>
</svg>
